<svg id="圖層_1" data-name="圖層 1" xmlns="http://www.w3.org/2000/svg" viewBox="0 0 446.84 446.84"><defs><style>.cls-1{fill:#3c3e3f;}.cls-2{fill:#ffe81c;}.cls-3{fill:none;}</style></defs><path class="cls-1" d="M221.36,0C343.42,0,442.72,99.28,442.72,221.31s-99.3,221.36-221.36,221.36S0,343.37,0,221.31,99.3,0,221.36,0ZM425.57,221.31c0-112.58-91.61-204.16-204.21-204.16S17.15,108.73,17.15,221.31s91.6,204.22,204.21,204.22S425.57,333.93,425.57,221.31Z"/><path class="cls-2" d="M221.36,17.15c112.6,0,204.21,91.58,204.21,204.16S334,425.53,221.36,425.53,17.15,333.93,17.15,221.31,108.75,17.15,221.36,17.15ZM339.14,204.63l26-84.57H262.1l18.65-29.3L235,120.06H114.57L88.75,204.63H178l-13.13,43.79L109,329.58,149.29,299l-1.38,5.33-18.42,54.83h98.6l35.45-146.83,10.13-7.68Z"/><path class="cls-1" d="M365.18,120.06l-26,84.57H273.67l-10.13,7.68L228.09,359.14h-98.6l18.42-54.83,1.38-5.33L109,329.58l55.85-81.16L178,204.63H88.75l25.82-84.57H235l45.77-29.3-18.65,29.3ZM330,192l18.51-57H266.17l-22.75,37.16,51.85,19.56ZM150,286.56l117.41-89-51.88-21.8,3.21-5.13,30.92-48.53.26-.45-89,56.93,46.56,24.32Zm65.88,56.1,26.29-100.37-78.1,60.83-12.67,39.54ZM128,180.21l70.43-45L122.87,135l-17.48,56.66,50.3.32Z"/><polygon class="cls-2" points="348.54 135.02 330.03 192 295.27 191.74 243.42 172.18 266.17 135.02 348.54 135.02"/><polygon class="cls-2" points="267.42 197.57 150.01 286.56 207.54 202.91 160.98 178.59 249.93 121.66 249.67 122.11 218.75 170.64 215.54 175.78 267.42 197.57"/><polygon class="cls-2" points="242.18 242.29 215.89 342.66 151.41 342.66 164.08 303.12 242.18 242.29"/><polygon class="cls-2" points="198.41 135.25 127.98 180.21 155.69 192 105.39 191.68 122.87 135.02 198.41 135.25"/><rect class="cls-3" width="446.84" height="446.84"/></svg>